<svg width="24" height="24" viewBox="0 0 24 24" fill="none" xmlns="http://www.w3.org/2000/svg">
<path d="M11 1.24957C11.4141 1.24957 11.7498 1.5855 11.75 1.99957C11.75 2.41379 11.4142 2.74957 11 2.74957H9C6.57411 2.74957 5.07082 3.23942 4.15527 4.15485C3.23978 5.07034 2.75004 6.57373 2.75 8.99957V14.9996C2.75 17.4255 3.23984 18.9288 4.15527 19.8443C5.0708 20.7598 6.57397 21.2496 9 21.2496H15C17.426 21.2496 18.9292 20.7598 19.8447 19.8443C20.7602 18.9288 21.25 17.4255 21.25 14.9996V12.9996C21.2502 12.5855 21.5859 12.2496 22 12.2496C22.4141 12.2496 22.7498 12.5855 22.75 12.9996V14.9996C22.75 17.5734 22.2396 19.5704 20.9053 20.9048C19.5708 22.2393 17.574 22.7496 15 22.7496H9C6.42603 22.7496 4.4292 22.2393 3.09473 20.9048C1.76038 19.5704 1.25 17.5734 1.25 14.9996V8.99957C1.25004 6.42575 1.76031 4.42871 3.09473 3.0943C4.42919 1.75995 6.42613 1.24957 9 1.24957H11Z" fill="#2C3E50"/>
<path fill-rule="evenodd" clip-rule="evenodd" d="M18.1963 1.01325C19.3096 0.903962 20.4143 1.3934 21.5107 2.48981C22.6069 3.5861 23.0956 4.69008 22.9863 5.80328C22.8809 6.877 22.2335 7.767 21.5107 8.48981L13.6299 16.3697L13.6221 16.3785C13.3969 16.5963 13.1023 16.7875 12.8184 16.9302C12.536 17.0722 12.2028 17.1974 11.8857 17.2427L8.87598 17.6724H8.87207C8.13003 17.7745 7.41999 17.5718 6.92188 17.0757C6.42319 16.5788 6.21844 15.8693 6.32715 15.1236L6.75684 12.1158C6.80176 11.7943 6.92724 11.459 7.07031 11.1744C7.21355 10.8894 7.40623 10.5933 7.62988 10.3697L15.5098 2.48981C16.2326 1.76699 17.1225 1.1188 18.1963 1.01325ZM8.69043 11.4302C8.61412 11.5065 8.50691 11.6557 8.41016 11.8482C8.31339 12.0408 8.25829 12.2155 8.24316 12.3238L8.24219 12.3257L7.8125 15.3355V15.3384C7.76216 15.6814 7.86258 15.8957 7.98047 16.0132C8.09941 16.1317 8.31826 16.2337 8.66406 16.1871L11.6738 15.7574C11.7768 15.7427 11.9494 15.6875 12.1445 15.5894C12.3324 15.495 12.4841 15.3884 12.5703 15.3072L18.4922 9.38531C16.7755 8.59628 15.3978 7.21996 14.6123 5.50739L8.69043 11.4302ZM18.3438 2.50641C17.7878 2.56098 17.2074 2.9133 16.5703 3.55035L15.7627 4.357C16.4031 6.16217 17.8266 7.58747 19.6416 8.2359L20.4492 7.42926C21.0862 6.79231 21.4385 6.2127 21.4932 5.6568C21.5439 5.14016 21.3528 4.45389 20.4492 3.55035C19.546 2.64719 18.8603 2.45586 18.3438 2.50641Z" fill="#2C3E50"/>
</svg>
